<?xml version="1.0" encoding="utf-8"?>
<!-- Generator: Adobe Illustrator 26.0.3, SVG Export Plug-In . SVG Version: 6.00 Build 0)  -->
<svg version="1.1" id="Layer_1" xmlns="http://www.w3.org/2000/svg" xmlns:xlink="http://www.w3.org/1999/xlink" x="0px" y="0px"
	 viewBox="0 0 500 500" style="enable-background:new 0 0 500 500;" xml:space="preserve">
<style type="text/css">
	.st0{display:none;}
	.st1{fill:#FFFFFF;}
	.st2{fill:none;stroke:#231F20;stroke-width:0.75;stroke-miterlimit:10;}
	.st3{fill:#13222A;}
	.st4{font-family:'Montserrat-Italic';}
	.st5{font-size:15.1924px;}
	.st6{letter-spacing:2;}
	.st7{font-family:'Montserrat-ExtraBold';}
	.st8{font-size:53.4339px;}
	.st9{font-family:'ScriptMTBold';}
</style>
<text transform="matrix(1 0 0 1 139.1178 396.6801)" class="st3 st4 st5 st6">Rebuilding Lifestyle</text>
<g>
	<path d="M195.3,67.4v-4.2c42,0,126.2,0,126.2,0l0.1,2.2c0,0,1,20.2,1.4,30.3c0,1,0.5,2.7-1.6,3c-2,0.3-2.6-0.3-3.3-2.4
		c-1.3-3.8-2.8-7.6-4.7-11.2c-4.3-7.8-11.6-12-20.7-12.6c-9.1-0.6-18.3-0.6-27.4-0.7c-6.4-0.1-12.8,0.1-19.2-0.1
		c-2.1,0-2.6,0.6-2.6,2.6c0.1,13.3,0,27.6,0.1,41c0,2.1-0.7,2.6-2.8,2.7c-6.4,0.4-12.8,1-19.5,1.5c-0.9,0.1-1.6-0.6-1.7-1.4
		c0-0.3,0-0.6,0-0.8c-0.1-11.1-0.3-23.2-0.3-34.3c0-10.5-6.2-14.4-16.5-15.4C200.2,67.2,197.8,67.4,195.3,67.4z"/>
	<g>
		<path d="M306,251.4c-0.8-0.4-1.5-0.8-2.4-1.3c-1.2,1.5-2.3,2.9-3.4,4.3c-6.7,8.1-13.5,16.2-23,21.5c-17.9,9.9-36.8,10.1-55.7,3.2
			c-19.3-7-30-21.4-35.2-39.9c-3.5-12.7-4-25.7-3-38.8c0.9-12,3.1-23.8,8.4-34.9c5.2-11.1,12.7-20.4,24.3-26.1
			c0.8-0.4,1.7-0.6,2.9-1.1c12.2-5,26.2-5.1,25.6-5l0,0c0.2,0,0.4,0,0.6,0c14.5,0.5,27.2,5,37.3,15.1c8.2,8.1,12.9,18.1,16.5,28.6
			c0.9,2.8,1.2,3.1,3.9,2.4c0.4-0.1,0.7-0.5,0.7-0.9c-1.2-17.4-2.5-34.9-3.7-52.3c0-0.7-0.6-1.2-1.2-1.3c-2.8-0.4-3-0.1-3.9,2.4
			c-3.1,8.5-8.1,10.4-16.5,6.4c-8.3-4-16.9-7.1-26.2-8.1c-29.7-3.3-55.4,4.8-74.9,26.5c-22.3,24.8-27.3,53.9-18.9,85
			c7.4,27.6,31.4,55.6,74.9,56.8c15.3,0.4,30-1.7,43.4-9.2c13.3-7.4,22.5-18.5,30.2-30.9C307.2,252.7,307.1,252,306,251.4z"/>
	</g>
	<path d="M262.4,220.5c-2.9-0.4-6-0.6-8.8-1.5c-5.7-1.7-9.4-5.2-9.7-11.3c-0.1-1.7-0.4-3.5-0.4-5.2c-0.1-20.5-0.1-55.1-0.1-59.4
		c0-0.3-0.2-0.5-0.5-0.6c-2.4-0.3-12.7-1.5-20.4,1.5c-1.8,0.7-3,2.3-3,4.2c0,5.2,0.1,19,0,27.7c-0.1,9.9-0.1,19.7-0.5,29.6
		c-0.4,9.7-5.1,14-16.2,14.9c-1.7,0.1-3.5,0-5.2,0c-0.7,0-1.4,0.1-2.3,0.1v3.9l73.7,0c0.1-2.6,0.1-1.4,0.2-4
		C266.7,220.4,264.5,220.7,262.4,220.5z"/>
</g>
<g>
	<g>
		<text transform="matrix(1 0 0 1 134.5348 367.2953)" class="st3 st7 st8">FAT</text>
	</g>
	<text transform="matrix(1 0 0 1 254.7018 367.1302)" class="st3 st9 st8">City</text>
</g>
</svg>
